<?xml version="1.0" encoding="UTF-8"?>
<!DOCTYPE svg PUBLIC "-//W3C//DTD SVG 1.1//EN" "http://www.w3.org/Graphics/SVG/1.1/DTD/svg11.dtd">
<svg xmlns="http://www.w3.org/2000/svg" xmlns:xlink="http://www.w3.org/1999/xlink" version="1.1" width="24" height="24" viewBox="0 0 24 24">
  <path d="M 10,13 C 10,9.64 8.65,8.54 7.76,8.18 7.3,9.25 6.24,10 5,10 A 3,3 0 0 1 2,7 3,3 0 0 1 5,4 c 1.31,0 2.42,0.83 2.83,2 h 8.34 C 16.58,4.83 17.69,4 19,4 a 3,3 0 0 1 3,3 3,3 0 0 1 -3,3 C 17.69,10 16.58,9.17 16.17,8 h -5.29 c 0.65,0.88 1.12,2.16 1.12,4 0,2.67 1.34,3.56 2.23,3.85 C 14.68,14.77 15.75,14 17,14 a 3,3 0 0 1 3,3 3,3 0 0 1 -3,3 C 15.66,20 14.5,19.12 14.14,17.91 12.71,17.65 10,16.68 10,13 M 6,7 A 1,1 0 0 0 5,6 1,1 0 0 0 4,7 1,1 0 0 0 5,8 1,1 0 0 0 6,7 m 14,0 a 1,1 0 0 0 -1,-1 1,1 0 0 0 -1,1 1,1 0 0 0 1,1 1,1 0 0 0 1,-1 m -2,10 a 1,1 0 0 0 -1,-1 1,1 0 0 0 -1,1 1,1 0 0 0 1,1 1,1 0 0 0 1,-1 z"/>
</svg>
