<?xml version="1.0" encoding="UTF-8"?><!DOCTYPE svg PUBLIC "-//W3C//DTD SVG 1.1//EN" "http://www.w3.org/Graphics/SVG/1.1/DTD/svg11.dtd"><svg xmlns="http://www.w3.org/2000/svg" xmlns:xlink="http://www.w3.org/1999/xlink" version="1.1" width="24" height="24" viewBox="0 0 24 24">
  <path d="M 4 4 C 2.89 4 2 4.89 2 6 L 2 18 A 2 2 0 0 0 4 20 L 20 20 A 2 2 0 0 0 22 18 L 22 6 C 22 4.89 21.1 4 20 4 L 4 4 z M 4 6 L 20 6 L 20 18 L 4 18 L 4 6 z M 6 8 L 6 13 L 10 13 L 10 8 L 6 8 z M 11 8 L 11 10 L 18 10 L 18 8 L 11 8 z M 11 11 L 11 13 L 18 13 L 18 11 L 11 11 z M 11 14 L 11 16 L 18 16 L 18 14 L 11 14 z"/>
</svg>
