<svg xmlns="http://www.w3.org/2000/svg" width="24" height="24" viewBox="0 0 24 24">
  <path fill="none" d="M0 0h24v24H0V0z"/>
  <path d="M 7 2.0507812 L 7 6.859375 C 5.21 7.899375 4 9.8307819 4 12.050781 C 4 15.360781 6.69 18.050781 10 18.050781 C 10.701424 18.050781 11.372005 17.923068 11.998047 17.701172 L 12 17.701172 C 12.626516 17.923461 13.297944 18.050781 14 18.050781 C 17.31 18.050781 20 15.360781 20 12.050781 C 19.999953 9.830782 18.79 7.899375 17 6.859375 L 17 2.0507812 L 13 2.0507812 L 7 2.0507812 z M 9 4.0507812 L 11 4.0507812 L 11 8.0097656 L 12 8.5898438 C 13.24 9.3098437 14 10.630781 14 12.050781 C 14 14.260781 12.21 16.050781 10 16.050781 C 7.79 16.050781 6 14.260781 6 12.050781 C 6 10.630781 6.77 9.3098437 8 8.5898438 L 9 8.0097656 L 9 4.0507812 z M 13 4.0507812 L 15 4.0507812 L 15 8.0097656 L 16 8.5898438 C 17.24 9.3098437 18 10.630781 18 12.050781 C 18 14.086901 16.475229 15.748304 14.507812 16 C 15.434349 14.943751 16 13.563906 16 12.050781 C 16 9.8307818 14.79 7.899375 13 6.859375 L 13 4.0507812 z M 10 9 A 3 3 0 0 0 8.6777344 9.3085938 C 8.2511636 10.131241 8 11.059311 8 12.050781 C 8 12.998201 8.2446426 13.878383 8.640625 14.671875 A 3 3 0 0 0 10 15 A 3 3 0 0 0 11.109375 14.787109 C 10.426631 14.074352 10 13.117505 10 12.050781 C 10 10.986721 10.431729 9.9779711 11.166016 9.2363281 A 3 3 0 0 0 10 9 z M 0 11 L 0 13 L 3 13 L 3 11 L 0 11 z M 21 11 L 21 13 L 24 13 L 24 11 L 21 11 z M 4.3398438 17.289062 L 2.5507812 19.089844 L 3.9609375 20.5 L 5.75 18.699219 L 4.3398438 17.289062 z M 19.640625 17.310547 L 18.240234 18.710938 L 20.029297 20.509766 L 21.439453 19.099609 L 19.640625 17.310547 z M 11 20 L 11 23 L 13 23 L 13 20 L 11 20 z"/>
  <path opacity="0.3" d="M 9,4.0507812 V 8.0097656 L 8,8.5898438 c -1.24,0.72 -2,2.0409372 -2,3.4609372 0,2.21 1.79,4 4,4 2.21,0 4,-1.79 4,-4 0,-1.42 -0.77,-2.7409372 -2,-3.4609372 L 11,8.0097656 V 4.0507812 Z m 4,0 V 6.859375 c 1.79,1.04 3,2.9714067 3,5.191406 C 16,13.564069 15.434528,14.943708 14.507812,16 16.475229,15.748304 18,14.086901 18,12.050781 c 0,-1.42 -0.77,-2.7409374 -2,-3.4609372 L 15,8.0097656 V 4.0507812 Z M 10,9 a 3,3 0 0 1 1.166016,0.2363281 C 10.431729,9.9779711 10,10.986721 10,12.050781 c 0,1.066724 0.426631,2.023571 1.109375,2.736328 A 3,3 0 0 1 10,15 3,3 0 0 1 8.640625,14.671875 C 8.244643,13.878383 8,12.998201 8,12.050781 8,11.059311 8.251164,10.131241 8.677734,9.3085938 A 3,3 0 0 1 10,9 Z"/>
</svg>
