<svg xmlns="http://www.w3.org/2000/svg" width="24" height="24" viewBox="0 0 24 24">
 <path d="M 5 3 C 3.3431458 3 2 4.3431458 2 6 C 2 7.6568542 3.3431458 9 5 9 C 6.24 9 7.2997656 8.2496875 7.7597656 7.1796875 C 8.6497656 7.5396875 10 8.64 10 12 C 10 18 12.000625 20.000156 16.140625 19.910156 C 16.500625 21.120156 17.66 22 19 22 C 20.656854 22 22 20.656854 22 19 C 22 17.343146 20.656854 16 19 16 C 17.75 16 16.680469 16.769609 16.230469 17.849609 C 13.250294 17.757344 12.178812 16.226604 12.029297 12.068359 C 12.975188 12.783575 14.312697 13.337105 16.164062 13.466797 A 3 3 0 0 0 19 15.5 A 3 3 0 0 0 22 12.5 A 3 3 0 0 0 19 9.5 A 3 3 0 0 0 16.183594 11.470703 C 13.181653 11.259476 12.16905 9.9012073 11.769531 9.0429688 C 11.571143 8.2065705 11.266269 7.5217847 10.880859 7 L 16.169922 7 C 16.579922 8.17 17.69 9 19 9 C 20.656854 9 22 7.6568542 22 6 C 22 4.3431458 20.656854 3 19 3 C 17.69 3 16.579922 3.83 16.169922 5 L 7.8300781 5 C 7.4200781 3.83 6.31 3 5 3 z M 5 5 C 5.5522847 5 6 5.4477153 6 6 C 6 6.5522847 5.5522847 7 5 7 C 4.4477153 7 4 6.5522847 4 6 C 4 5.4477153 4.4477153 5 5 5 z M 19 5 C 19.552285 5 20 5.4477153 20 6 C 20 6.5522847 19.552285 7 19 7 C 18.447715 7 18 6.5522847 18 6 C 18 5.4477153 18.447715 5 19 5 z M 18.994141 11.429688 A 1 1 0 0 1 19.994141 12.429688 A 1 1 0 0 1 18.994141 13.429688 A 1 1 0 0 1 17.994141 12.429688 A 1 1 0 0 1 18.994141 11.429688 z M 19 18 C 19.552285 18 20 18.447715 20 19 C 20 19.552285 19.552285 20 19 20 C 18.447715 20 18 19.552285 18 19 C 18 18.447715 18.447715 18 19 18 z"/>
</svg>
