<svg xmlns="http://www.w3.org/2000/svg" width="600" height="400" viewBox="80 -110 3600 2400" fill="#ffffff">
	
	<!-- box -->
	<polygon opacity=".50" points="1353.781,775.995 1893.355,1088.486 1353.781,1400.979"/> <!-- left -->
	<polygon opacity=".30" points="1893.355,463.504 1893.355,1088.486 1353.781,775.995"/> <!-- top left -->
	<polygon opacity=".35" points="2432.932,775.995 1893.355,1088.486 1893.355,463.504"/> <!-- top right -->
	<polygon opacity=".75" points="2432.932,1400.979 1893.355,1088.486 2432.932,775.995"/> <!-- right -->
	<polygon opacity=".70" points="1893.355,1713.469 1893.355,1088.486 2432.932,1400.979"/> <!-- bottom right -->
	<polygon opacity=".45" points="1353.781,1400.979 1893.355,1088.486 1893.355,1713.469"/> <!-- bottom left -->

	<!-- outer ring -->
	<polygon points="1076,615.743 1269.847,727.92 1269.847,1449.053 1076,1561.23"/> <!-- left-->
	<polygon points="1893.355,143 1893.355,367.353 1269.847,727.92 1076,615.743"/> <!-- top left -->
	<polygon points="2710.711,615.743 2516.865,727.92 1893.355,367.353 1893.355,143"/> <!-- top right -->
	<polygon points="1893.355,2033.973 1893.355,1809.621 2516.865,1449.053 2710.711,1561.23"/> <!-- bottom right -->
	<polygon points="1076,1561.23 1269.847,1449.053 1893.355,1809.621 1893.355,2033.973"/> <!-- bottom left -->
</svg>
